<svg width="96" height="25" fill="none" xmlns="http://www.w3.org/2000/svg" class="ff-mt-4"><path fill="#ff004c" d="m29.565 12.173 3.225 3.258 3.224-3.258-3.224-3.245-3.225 3.245Zm-14.589 0 2.829 2.86 2.841-2.86-2.841-2.847-2.829 2.847Zm-14.59 0 2.471 2.487 2.471-2.487-2.47-2.486-2.471 2.486Zm58.346 0 4.015 4.054 4.027-4.054-4.027-4.04-4.015 4.04Zm-14.59 0 3.645 3.656 3.62-3.656-3.62-3.643-3.645 3.643Zm51.267-.696A12.097 12.097 0 0 0 93 4.916 11.975 11.975 0 0 0 87.371.809 11.897 11.897 0 0 0 80.427.54a11.959 11.959 0 0 0-5.923 3.661 12.084 12.084 0 0 0-2.903 6.356 12.117 12.117 0 0 0 1.094 6.908 12.018 12.018 0 0 0 4.724 5.132 11.908 11.908 0 0 0 6.76 1.625 11.941 11.941 0 0 0 8.237-4.033 12.097 12.097 0 0 0 2.993-8.712Zm-9.327-7.659a8.544 8.544 0 0 1 4.62 3.618 2.903 2.903 0 0 1-1.519.522 3.096 3.096 0 0 1-2.64-1.243 3.143 3.143 0 0 1-.46-2.897Zm-9.364 13.416a8.575 8.575 0 0 1-1.754-4.725v-.77c.617.04 1.207.269 1.694.653.486.384.846.907 1.033 1.5a3.115 3.115 0 0 1-.997 3.342h.024Zm-.37-9.947a8.518 8.518 0 0 1 4.632-3.544c.086.254.14.517.16.784a3.121 3.121 0 0 1-.775 2.246 3.08 3.08 0 0 1-2.127 1.036 2.987 2.987 0 0 1-1.927-.472l.037-.05Zm7.659 13.254a8.523 8.523 0 0 1-3.52-.547c.19-.638.579-1.197 1.11-1.594a3.062 3.062 0 0 1 3.672 0c.53.397.92.956 1.11 1.594-.77.318-1.581.52-2.41.597l.038-.05Zm2.965-8.977-1.087 3.121a.845.845 0 0 1-.828.584l-3.286-.074a.836.836 0 0 1-.803-.61l-.951-3.17a.876.876 0 0 1 .346-.957l2.693-1.89a.873.873 0 0 1 1.013 0l2.606 2.002a.858.858 0 0 1 .26 1.044l.037-.05Zm3.57 5.197a3.09 3.09 0 0 1-1.215-1.469 3.115 3.115 0 0 1 .885-3.525 3.065 3.065 0 0 1 1.763-.713c0 .125 0 .25.062.373a8.62 8.62 0 0 1-1.532 5.384l.037-.05Z"/></svg>