<svg width="98" height="24" viewBox="0 0 606 148" fill="none" xmlns="http://www.w3.org/2000/svg"><path d="M531.914 0c-12.29 0-22.256 9.84-22.256 21.975 0 12.136 9.966 21.974 22.256 21.974 12.291 0 22.254-9.838 22.254-21.974C554.168 9.84 544.205 0 531.914 0Zm51.512 51.792c-12.29 0-22.254 9.84-22.254 21.975 0 12.137 9.964 21.974 22.254 21.974 12.291 0 22.255-9.837 22.255-21.974 0-12.135-9.964-21.975-22.255-21.975Zm-103.024 0c-12.29 0-22.256 9.84-22.256 21.975 0 12.137 9.966 21.974 22.256 21.974 12.291 0 22.254-9.837 22.254-21.974 0-12.135-9.963-21.975-22.254-21.975Zm51.512 0c-12.29 0-22.256 9.84-22.256 21.975 0 12.137 9.966 21.974 22.256 21.974 12.291 0 22.254-9.837 22.254-21.974 0-12.135-9.963-21.975-22.254-21.975Zm0 51.793c-12.29 0-22.256 9.84-22.256 21.974 0 12.137 9.966 21.974 22.256 21.974 12.291 0 22.254-9.837 22.254-21.974 0-12.134-9.963-21.974-22.254-21.974ZM250.78 62.008V32.142h55.655L318.148 0H204.859v147.534h45.921V94.25h33.056l11.751-32.242H250.78Zm102.783 37.355 17.74-61.457 18.356 61.457h-36.096ZM348.157 0l-53.753 147.534h45.215l5.744-19.819h51.889l6.001 19.819h46.374L395.9 0h-47.743ZM127.343 147.534h45.918V0H127.34l.003 147.534ZM0 147.534h45.921V94.25H78.98l11.75-32.242H45.921V32.142h55.655L113.291 0H0v147.534Zm414.313-142.8a5.617 5.617 0 0 1 1.132-1.79 5.082 5.082 0 0 1 1.675-1.173 5.146 5.146 0 0 1 2.061-.416c.735 0 1.423.14 2.062.416a5.078 5.078 0 0 1 1.674 1.172c.478.503.855 1.1 1.132 1.79a5.98 5.98 0 0 1 .418 2.255c0 .814-.14 1.566-.418 2.255a5.583 5.583 0 0 1-1.132 1.79 5.058 5.058 0 0 1-3.736 1.589 5.062 5.062 0 0 1-3.736-1.588 5.617 5.617 0 0 1-1.132-1.79 5.974 5.974 0 0 1-.417-2.256c0-.813.139-1.564.417-2.254Zm-.068 7.19a7.08 7.08 0 0 0 2.216 1.5 6.742 6.742 0 0 0 2.72.553c.968 0 1.875-.184 2.72-.553a7.092 7.092 0 0 0 2.216-1.5 7.053 7.053 0 0 0 1.5-2.216c.37-.845.552-1.752.552-2.72 0-.968-.182-1.874-.552-2.72a7.074 7.074 0 0 0-1.5-2.217 7.159 7.159 0 0 0-2.216-1.5 6.76 6.76 0 0 0-2.72-.55c-.968 0-1.874.183-2.72.55a7.147 7.147 0 0 0-2.216 1.5 7.142 7.142 0 0 0-1.5 2.217 6.74 6.74 0 0 0-.553 2.72c0 .968.185 1.875.553 2.72a7.12 7.12 0 0 0 1.5 2.216Zm3.716-7.8h1.316c.195 0 .386.012.572.038.187.026.358.077.514.154.154.08.28.188.377.33.097.142.145.33.145.561 0 .27-.045.484-.136.639a.882.882 0 0 1-.358.35 1.56 1.56 0 0 1-.512.154 4.817 4.817 0 0 1-.62.038h-1.298V4.123Zm0 3.387h.892l2.051 3.407h1.511l-2.13-3.466c.658-.064 1.167-.264 1.53-.6.36-.334.541-.845.541-1.529 0-.837-.249-1.435-.745-1.79-.498-.355-1.223-.533-2.178-.533h-2.942v7.918h1.47V7.51Z" fill="#fff"/></svg>